<?xml version="1.0" encoding="UTF-8"?>
<svg id="_图层_2" data-name="图层 2" xmlns="http://www.w3.org/2000/svg" viewBox="0 0 308.56 372.19">
  <defs>
    <style>
      .cls-1 {
        fill: #9fec31;
      }

      .cls-2 {
        stroke: #9fec31;
        stroke-miterlimit: 10;
      }

      .cls-2, .cls-3 {
        fill: none;
      }
    </style>
  </defs>
  <g id="OBJECTS">
    <g>
      <rect class="cls-1" x="287" y="151.94" width="14.38" height="14.38"/>
      <rect class="cls-1" x="294.19" y="144.76" width="14.37" height="14.38"/>
      <rect class="cls-1" x="96.44" y="367.06" width="5.13" height="5.13"/>
      <rect class="cls-1" x="51.5" y="139.62" width="5.13" height="5.13"/>
      <rect class="cls-1" x="189.82" y="13.43" width="5.13" height="5.13"/>
      <rect class="cls-1" x="279.81" y="159.13" width="14.37" height="14.38"/>
      <rect class="cls-1" y="163" width="11.5" height="11.5"/>
      <rect class="cls-1" x="274.75" y="59.25" width="11.5" height="11.5"/>
      <rect class="cls-1" x="186.64" y="44" width="11.5" height="11.5"/>
      <rect class="cls-1" x="117.75" y="192.25" width="11.5" height="11.5"/>
      <rect class="cls-1" x="123.5" y="198" width="11.5" height="11.5"/>
      <rect class="cls-3" x="78.39" width="32" height="32"/>
      <rect class="cls-2" x=".75" y="320.78" width="10.22" height="10.22"/>
      <rect class="cls-2" x="73.28" y="348.39" width="10.22" height="10.22"/>
      <rect class="cls-2" x="187.28" y="163.64" width="10.22" height="10.22"/>
      <rect class="cls-2" x="228" y="244.5" width="19" height="19"/>
      <rect class="cls-2" x="68.89" y="254" width="19" height="19"/>
      <rect class="cls-1" x="298.5" y="362.12" width="5.75" height="5.75"/>
      <rect class="cls-1" x="180.08" y="85.56" width="24.62" height="24.62"/>
      <rect class="cls-1" x="166.62" y="317.91" width="5.75" height="5.75"/>
    </g>
  </g>
</svg>