<svg width="22" height="23" viewBox="0 0 22 23" fill="none" xmlns="http://www.w3.org/2000/svg">
  <path fill-rule="evenodd" clip-rule="evenodd"
    d="M20 11.3719C20 16.3425 15.9706 20.3719 11 20.3719C6.02944 20.3719 2 16.3425 2 11.3719C2 6.40132 6.02944 2.37189 11 2.37189C15.9706 2.37189 20 6.40132 20 11.3719ZM11.0001 18.3719C14.8661 18.3719 18.0001 15.2379 18.0001 11.3719C18.0001 7.50588 14.8661 4.37187 11.0001 4.37187C7.13411 4.37187 4.0001 7.50588 4.0001 11.3719C4.0001 15.2379 7.13411 18.3719 11.0001 18.3719ZM11.0001 19.3719C15.4184 19.3719 19.0001 15.7902 19.0001 11.3719C19.0001 6.9536 15.4184 3.37187 11.0001 3.37187C6.58183 3.37187 3.0001 6.9536 3.0001 11.3719C3.0001 15.7902 6.58183 19.3719 11.0001 19.3719ZM15.2419 7.12861L15.2383 7.13735L15.243 7.13545L12.7677 13.1396L6.75741 15.6146L9.23241 9.60429L9.23421 9.60355L9.23349 9.60283L15.2419 7.12861ZM12.0485 12.4179L9.95442 10.3238L9.95229 10.3246L8.48556 13.8865L12.0479 12.4195L12.0485 12.4179Z"
    fill="#009e5c" />
</svg>