<svg width="22" height="23" viewBox="0 0 22 23" fill="none" xmlns="http://www.w3.org/2000/svg">
  <path fill-rule="evenodd" clip-rule="evenodd"
    d="M12.1568 9.11697C13.5051 8.64052 14.4712 7.35465 14.4712 5.84314C14.4712 3.92602 12.9171 2.37189 11 2.37189C9.08285 2.37189 7.52872 3.92602 7.52872 5.84314C7.52872 7.35444 8.49453 8.64016 9.84261 9.11677V13.3641C9.84261 14.0032 10.3606 14.5212 10.9997 14.5212C11.6387 14.5212 12.1568 14.0032 12.1568 13.3641V9.11697ZM9.26433 10.1574L2 13.686V15.2935L11 20.2668L20 15.2935V13.686L12.7356 10.1574V13.3641C12.7356 14.3227 11.9585 15.0998 11 15.0998C10.0414 15.0998 9.26433 14.3227 9.26433 13.3641V10.1574ZM12.2033 5.01724C12.6552 5.01724 13.0215 4.65093 13.0215 4.19906C13.0215 3.74719 12.6552 3.38088 12.2033 3.38088C11.7514 3.38088 11.3851 3.74719 11.3851 4.19906C11.3851 4.65093 11.7514 5.01724 12.2033 5.01724Z"
    fill="#009e5c" />
</svg>