<svg width="22" height="23" viewBox="0 0 22 23" fill="none" xmlns="http://www.w3.org/2000/svg">
  <path fill-rule="evenodd" clip-rule="evenodd"
    d="M13.3646 3.46472L18.9072 6.66472L15.7072 12.2073L10.1646 9.00728L13.3646 3.46472ZM10 7.69237L13.0718 2.37189L20 6.37189L16 13.3001L13.1122 11.6328L14.899 18.3013L7.17163 20.3719L5.10107 12.6445L9.85042 11.3719H2V3.37189H10V7.69237ZM10 9.83601V11.3318L11.7696 10.8577L10 9.83601ZM13.6997 7.692L13.0321 8.84829L13.7659 9.27192C13.9162 9.35873 14.0527 9.40582 14.1754 9.41318C14.2991 9.41864 14.408 9.39268 14.502 9.3353C14.5961 9.27793 14.6744 9.195 14.737 9.08651C14.8074 8.96469 14.8474 8.84697 14.8572 8.73333C14.8689 8.6208 14.8437 8.51492 14.7817 8.41568C14.7208 8.31455 14.6171 8.22167 14.4706 8.13706L13.6997 7.692ZM15.4346 8.26878C15.4828 8.27572 15.5298 8.27952 15.5756 8.28019C15.7939 8.28443 15.9829 8.23621 16.1426 8.13551C16.3041 8.03591 16.4344 7.90046 16.5333 7.72915C16.6454 7.53501 16.7069 7.34719 16.7177 7.16568C16.7297 6.98227 16.696 6.80547 16.6167 6.63528C16.5373 6.4651 16.4146 6.30167 16.2488 6.145C16.0848 5.98943 15.882 5.84186 15.6402 5.7023L14.1899 4.86494L11.7899 9.02186L12.1154 9.20977L12.6464 9.51637L13.3801 9.93999C13.7018 10.1257 14.0004 10.2372 14.2758 10.2744C14.5531 10.3127 14.8021 10.275 15.0226 10.1612C15.2442 10.0455 15.4319 9.8544 15.5857 9.58793C15.6824 9.42043 15.7369 9.24253 15.7492 9.05421C15.7634 8.86699 15.7188 8.68265 15.6155 8.50118C15.5707 8.41973 15.5104 8.34226 15.4346 8.26878ZM14.6331 7.44672C14.7911 7.53793 14.932 7.59267 15.056 7.61094C15.1811 7.62731 15.2909 7.61076 15.3854 7.5613C15.4829 7.51103 15.5647 7.42879 15.6306 7.31459C15.7053 7.18516 15.741 7.06619 15.7377 6.95768C15.7363 6.85027 15.6946 6.74881 15.6127 6.6533C15.5327 6.5589 15.4128 6.46554 15.2529 6.37323L14.659 6.03038L14.0393 7.10387L14.6331 7.44672ZM12.4838 15.8002L11.3557 16.1025C11.3999 16.3279 11.4004 16.5259 11.3571 16.6966C11.3164 16.8665 11.2294 17.0098 11.0962 17.1264C10.963 17.243 10.7782 17.3329 10.5417 17.3963C10.3405 17.4502 10.1584 17.4599 9.99547 17.4254C9.83439 17.3877 9.68902 17.308 9.55937 17.1864C9.43157 17.0615 9.31764 16.898 9.21758 16.6956C9.11686 16.4907 9.02841 16.2462 8.95225 15.9619L8.84811 15.5733C8.76993 15.2815 8.72449 15.0214 8.71181 14.7929C8.70096 14.5613 8.72412 14.361 8.78129 14.192C8.83846 14.023 8.92804 13.8844 9.05003 13.7762C9.17202 13.668 9.32735 13.5887 9.516 13.5381C9.76755 13.4707 9.97957 13.457 10.1521 13.4971C10.3264 13.534 10.4722 13.6203 10.5894 13.756C10.706 13.8892 10.8003 14.0648 10.8721 14.2828L12.0041 13.9795C11.8691 13.6167 11.6745 13.3129 11.4202 13.0683C11.1685 12.823 10.8619 12.6599 10.5005 12.5788C10.1416 12.497 9.73319 12.5174 9.27538 12.6401C8.93077 12.7324 8.63537 12.8777 8.38918 13.0757C8.143 13.2738 7.94995 13.5142 7.81005 13.7971C7.67267 14.0792 7.5937 14.3983 7.57316 14.7543C7.55446 15.1071 7.59903 15.4847 7.70687 15.8872L7.80898 16.2683C7.91683 16.6707 8.06579 17.0204 8.25587 17.3173C8.44595 17.6141 8.66975 17.8507 8.92729 18.027C9.18735 18.2027 9.47349 18.3147 9.78573 18.3632C10.0973 18.4091 10.4292 18.3849 10.7813 18.2905C11.2316 18.1699 11.5949 17.9863 11.8712 17.7397C12.15 17.4924 12.3403 17.2015 12.4421 16.8669C12.5464 16.5316 12.5603 16.176 12.4838 15.8002ZM6.53906 4.52814H6.24219H5.73828H5.44922L3.33594 10.2156H4.58203L4.97548 9.01643H7.01962L7.41406 10.2156H8.66406L6.53906 4.52814ZM6.71769 8.09846H5.27665L5.99626 5.9051L6.71769 8.09846Z"
    fill="#009e5c" />
</svg>