<svg width="22" height="23" viewBox="0 0 22 23" fill="none" xmlns="http://www.w3.org/2000/svg">
  <path fill-rule="evenodd" clip-rule="evenodd"
    d="M7.63974 17.0109C6.69062 17.0601 6.48951 17.9904 6.45045 18.2639L6.44177 18.3391C6.38389 18.7862 6.18278 19.2188 5.83988 19.5617C5.01085 20.3892 3.66675 20.3892 2.83916 19.5617C2.01157 18.7341 2.01157 17.3885 2.83916 16.5609C3.18206 16.218 3.61466 16.0169 4.06173 15.9591L4.13697 15.9504C4.41042 15.9113 5.34073 15.7102 5.38992 14.7611L2 11.3712L5.37545 7.99716C5.32626 7.04804 4.39595 6.84693 4.1225 6.80787L4.04582 6.79918C3.60019 6.74131 3.16759 6.5402 2.82469 6.1973C1.99711 5.36827 1.99711 4.02417 2.82469 3.19658C3.65228 2.36899 4.99638 2.36899 5.82542 3.19658C6.16831 3.53948 6.36942 3.97208 6.4273 4.4177L6.43598 4.49439C6.47504 4.76784 6.67615 5.69815 7.62527 5.74734L10.9993 2.37189L14.3747 5.74734C15.3238 5.69815 15.525 4.76784 15.564 4.49439L15.5727 4.4177C15.6306 3.97208 15.8317 3.53948 16.1746 3.19658C17.0022 2.36899 18.3477 2.36899 19.1753 3.19658C20.0029 4.02417 20.0029 5.36827 19.1753 6.1973C18.8324 6.5402 18.3998 6.74131 17.9527 6.79918L17.8775 6.80787C17.6041 6.84693 16.6737 7.04804 16.6245 7.99716L20 11.3712L10.9993 20.3719L7.63974 17.0109V17.0109ZM14.3747 16.9964C14.3255 16.0473 13.3967 15.8462 13.1218 15.8086L13.0465 15.7999C12.5995 15.7406 12.1683 15.5395 11.8254 15.1966C10.9964 14.369 10.9964 13.0249 11.8254 12.1973C12.653 11.3683 13.9971 11.3683 14.8247 12.1973C15.1676 12.5402 15.3687 12.9714 15.428 13.4184L15.4367 13.4937C15.4743 13.7686 15.6754 14.6974 16.6245 14.7466L14.3747 16.9964Z"
    fill="#009e5c" />
</svg>