<svg width="22" height="23" viewBox="0 0 22 23" fill="none" xmlns="http://www.w3.org/2000/svg">
  <path fill-rule="evenodd" clip-rule="evenodd"
    d="M11 2.37189C6.03329 2.37189 2 6.40517 2 11.3719C2 16.3386 6.03329 20.3719 11 20.3719C15.9667 20.3719 20 16.3386 20 11.3719C20 6.40517 15.9667 2.37189 11 2.37189ZM5.63343 5.83174L5.72343 6.41932C6.06543 8.22574 6.64014 9.94989 7.41286 11.5635L7.92329 12.6229C9.101 14.8099 10.6413 16.7745 12.4631 18.4343L12.9157 18.8457C12.3037 19.0026 11.6609 19.0862 11 19.0862C9.81457 19.0862 8.69086 18.8187 7.68671 18.3392L7.706 18.1206L7.69829 16.4325C7.59414 15.841 7.49129 15.2496 7.38843 14.6595L6.91271 13.5422L7.92329 12.6229L7.42314 11.5827L7.37043 11.6213L6.37271 12.529L5.98829 12.0225C5.73629 11.8077 5.483 11.5917 5.231 11.377L3.50814 10.4089L3.35643 10.3266C3.59429 8.57289 4.42229 7.0056 5.63343 5.83174V5.83174ZM9.71943 9.95632H9.72071L9.92257 10.5285L10.2067 10.963C11.6853 13.2825 13.9083 13.8662 16.0837 14.2866L17.6253 14.59L17.966 14.689C17.174 16.3476 15.8073 17.6796 14.123 18.4266L14.0407 18.3649L13.718 18.0705C11.7251 16.3707 10.0653 14.2917 8.83743 11.953L8.82329 11.9247L9.68857 11.2767L10.2067 10.963L9.92257 10.5285L9.71943 9.95632V9.95632ZM6.59514 17.704C5.897 17.2167 5.28243 16.6176 4.77843 15.9323L4.83114 15.8565L6.07314 14.4049C6.47814 15.2997 6.599 16.2113 6.599 17.0805L6.59514 17.704V17.704ZM3.28829 11.5557L4.47757 12.1999C4.69357 12.376 4.90829 12.5509 5.12429 12.727L5.56914 13.3043L4.196 14.8536L4.14843 14.9192C3.62386 13.9073 3.31657 12.7656 3.28829 11.5557ZM17.948 8.01874C18.4391 9.03317 18.7143 10.1697 18.7143 11.3719C18.7143 12.1677 18.5934 12.934 18.3697 13.6566L18.0046 13.5435L16.2946 13.1925C14.4136 12.8286 12.4567 12.3812 11.1967 10.3767L11.189 10.3652C13.0906 9.29289 15.176 8.51374 17.3951 8.12674L17.948 8.01874V8.01874ZM10.694 3.66403L10.0589 5.45374C9.53043 6.93232 9.15371 8.53689 9.71686 9.94732L9.71943 9.95632L9.06629 10.3536L8.33086 10.9039C7.56329 9.23374 7.01686 7.44274 6.71986 5.56817L6.635 5.01274C7.79857 4.21174 9.191 3.72189 10.694 3.66403V3.66403ZM11.8409 3.7026C14.1269 3.95074 16.1146 5.19917 17.3566 7.00174L16.8101 7.10846C14.6334 7.52632 12.584 8.30674 10.7056 9.35717C10.4883 8.80689 10.505 8.20903 10.6079 7.60989C10.7647 6.69832 11.1183 5.78289 11.4384 4.9446L11.8409 3.7026V3.7026Z"
    fill="#009e5c" />
</svg>