<svg width="22" height="23" viewBox="0 0 22 23" fill="none" xmlns="http://www.w3.org/2000/svg">
  <path fill-rule="evenodd" clip-rule="evenodd"
    d="M16.35 14.3016C14.3355 14.3016 12.7 15.8856 12.7 17.8368C12.7 19.7879 14.3355 21.3719 16.35 21.3719C18.3645 21.3719 20 19.7879 20 17.8368C20 15.8856 18.3645 14.3016 16.35 14.3016ZM14.8535 8.02675H12.234L16.0664 2.37189L19.8989 8.02675H17.0028C16.6926 9.67466 16.0552 10.8943 15.2649 11.8161C13.5859 13.7768 11.16 14.3968 9.40945 14.7612C7.9635 15.063 4.10576 15.8367 4.10576 19.9633C4.10576 20.5248 3.63407 20.983 3.05288 20.983C2.47169 20.983 2 20.5248 2 19.9633C2 14.3968 7.01451 13.1758 8.96584 12.7679C10.3514 12.4783 12.314 12.0663 13.6448 10.5136C14.1811 9.88677 14.6051 9.07641 14.8535 8.02675V8.02675ZM16.35 15.9332C17.4352 15.9332 18.3154 16.7857 18.3154 17.8368C18.3154 18.8864 17.4352 19.7403 16.35 19.7403C15.2649 19.7403 14.3847 18.8864 14.3847 17.8368C14.3847 16.7857 15.2649 15.9332 16.35 15.9332ZM6.10061 6.09466L3.63547 3.80906C3.29995 3.49633 2.7665 3.50857 2.44502 3.83353C2.12354 4.15849 2.13477 4.67516 2.47029 4.98653L4.88348 7.22454L2.47029 9.46256C2.13477 9.77392 2.12354 10.2906 2.44502 10.6156C2.7665 10.9419 3.29995 10.9528 3.63547 10.6414L6.10061 8.35443L8.56575 10.6414C8.90267 10.9528 9.43613 10.9419 9.7576 10.6156C10.0791 10.2906 10.0664 9.77392 9.73093 9.46256L7.31914 7.22454L9.73093 4.98653C10.0664 4.67516 10.0791 4.15849 9.7576 3.83353C9.43613 3.50857 8.90267 3.49633 8.56575 3.80906L6.10061 6.09466V6.09466Z"
    fill="#009e5c" />
</svg>